<svg width="100" height="100" viewBox="0 0 100 100" fill="none" xmlns="http://www.w3.org/2000/svg">
<g clip-path="url(#clip0_307_3983)">
<path d="M95.4301 50.0002C90.885 72.727 77.2486 95.4545 77.2486 95.4545C77.2486 95.4545 72.7026 99.9997 49.9759 99.9997C27.2483 99.9997 22.7031 95.4545 22.7031 95.4545C22.7031 95.4545 9.06676 72.727 4.52075 50.0002H95.4301Z" fill="#C82E25"/>
<path d="M59.402 99.6984L58.7761 90.6296C65.3105 90.1769 68.9418 89.278 70.6772 88.707C73.1782 84.2085 79.4687 72.2966 83.6968 59.0906H68.2002V50.0002H95.6436L94.1521 55.6973C89.4938 73.4843 80.445 89.9788 77.7842 94.613L77.0759 95.8432L75.795 96.4507C73.8532 97.3746 69.1432 99.0259 59.402 99.6984Z" fill="#AF0A00"/>
<path d="M48.3073 99.9789C48.3114 99.978 48.3239 99.9631 48.3289 99.9631C55.386 90.1062 65.3187 72.7136 68.1577 50.0002H4.52075C9.06678 72.727 22.7032 95.4545 22.7032 95.4545C22.7032 95.4545 27.0678 99.7566 48.3073 99.9789V99.9789Z" fill="#D2514A"/>
<path d="M49.9502 81.8181C40.6326 81.8181 32.7225 78.3957 27.7245 72.3166C26.0566 72.598 24.3679 72.7353 22.6775 72.727V63.6366C24.8298 63.6366 26.6609 63.3769 28.119 62.8642L31.6105 61.6366L33.519 64.806C35.3018 67.7648 39.8095 72.727 49.9502 72.727C57.9269 72.727 62.4055 69.6092 64.7584 66.9924L71.5183 73.0732C66.4447 78.7128 58.7859 81.8181 49.9502 81.8181V81.8181Z" fill="#C82E25"/>
<path d="M77.265 72.727C74.0839 72.727 71.2391 72.2942 68.8088 71.4402L71.8226 62.8642C74.5816 63.8339 79.3266 64.1268 82.183 62.4381L86.8131 70.2592C84.0474 71.8972 80.8339 72.727 77.265 72.727Z" fill="#AF0A00"/>
<path d="M90.9094 36.3639C90.9094 36.3639 86.3633 0 50.0003 0C13.6364 0 9.09119 36.3639 9.09119 36.3639C9.09119 36.3639 0 36.3639 0 45.4543C0 54.5455 13.6364 54.5455 13.6364 54.5455C13.6364 54.5455 13.6364 63.6366 22.7275 63.6366C31.8179 63.6366 31.8179 59.0906 31.8179 59.0906C31.8179 63.6366 36.3639 72.727 50.0003 72.727C63.6366 72.727 68.1818 63.6366 68.1818 59.0906C68.1818 59.0906 68.1818 63.6366 77.273 63.6366C86.3633 63.6366 86.3633 54.5455 86.3633 54.5455C86.3633 54.5455 99.9997 54.5455 99.9997 45.4543C99.9997 36.3639 90.9094 36.3639 90.9094 36.3639V36.3639Z" fill="#FDCF6D"/>
<path d="M77.2861 59.0907C81.1946 59.0907 81.8113 56.2259 81.8313 54.5189L81.8405 50.0136L86.3657 50.0003C86.4497 50.0003 95.4677 49.7248 95.4677 45.4543C95.4677 41.5458 92.6021 40.9291 90.8959 40.9091L90.9491 36.364C95.461 36.4172 100.013 39.2487 100.013 45.4543C100.013 52.6437 91.0956 54.543 86.3765 54.5455V54.5496C86.3232 59.084 83.4917 63.6367 77.2861 63.6367V59.0907Z" fill="#FDBC34"/>
<path d="M27.6066 94.4424C18.4513 80.7104 13.8945 67.1964 13.7056 66.6279L18.016 65.1897C18.0601 65.3229 22.5862 78.7179 31.3886 91.9214L27.6066 94.4424Z" fill="#D96C66"/>
<path d="M36.3639 13.6364C13.6364 13.6364 9.09119 36.364 9.09119 36.364C9.09119 36.364 0 36.364 0 45.4543C0 54.5455 13.6364 54.5455 13.6364 54.5455C13.6364 54.5455 13.6364 63.6367 22.7276 63.6367C31.8179 63.6367 31.8179 59.0907 31.8179 59.0907C31.8179 63.6367 36.3639 72.7271 50.0003 72.7271C68.1818 72.7271 72.727 13.6364 36.3639 13.6364Z" fill="#FEE3AA"/>
<path d="M50.0003 72.727C38.3215 72.727 33.3585 66.0869 32.1334 61.3636H30.7484C29.4633 62.6395 26.9373 63.6366 22.7276 63.6366C16.5219 63.6366 13.6896 59.0773 13.6364 54.5588L13.6206 54.5454C8.92223 54.5454 0 52.6453 0 45.4543C0 39.2487 4.55849 36.4172 9.07787 36.3639L10.9131 36.3439L10.9622 40.8891L9.12864 40.9091C7.41744 40.9291 4.54518 41.5458 4.54518 45.4543C4.54518 49.7248 13.5631 50.0003 13.6538 50.0003L18.1283 50.0402L18.1815 54.5055C18.2015 56.2192 18.8191 59.0906 22.7276 59.0906C25.6905 59.0906 26.9556 58.5205 27.3726 58.2675L27.5898 56.8185H36.3639V59.0906C36.3639 61.0107 38.6785 68.1818 50.0003 68.1818V72.727Z" fill="#FDCF6D"/>
<path d="M45.4724 13.6364C45.4724 16.1466 43.4375 18.1815 40.9273 18.1815C38.417 18.1815 36.3821 16.1466 36.3821 13.6364C36.3821 11.1262 38.417 9.09119 40.9273 9.09119C43.4375 9.09119 45.4724 11.1262 45.4724 13.6364Z" fill="#993B17"/>
<path d="M68.1505 9.09118C68.1505 11.6014 66.1156 13.6364 63.6054 13.6364C61.0945 13.6364 59.0596 11.6014 59.0596 9.09118C59.0596 6.58013 61.0945 4.54517 63.6054 4.54517C66.1156 4.54517 68.1505 6.58013 68.1505 9.09118Z" fill="#993B17"/>
<path d="M59.1069 45.4542C59.1069 47.9653 57.072 50.0002 54.5618 50.0002C52.0516 50.0002 50.0166 47.9653 50.0166 45.4542C50.0166 42.944 52.0516 40.9091 54.5618 40.9091C57.072 40.9091 59.1069 42.944 59.1069 45.4542Z" fill="#AD6143"/>
<path d="M81.7848 27.2727C81.7848 29.7829 79.7498 31.8179 77.2396 31.8179C74.7286 31.8179 72.6936 29.7829 72.6936 27.2727C72.6936 24.7625 74.7286 22.7275 77.2396 22.7275C79.7498 22.7275 81.7848 24.7625 81.7848 27.2727Z" fill="#993B17"/>
<path d="M31.7677 31.8179C31.7677 34.3289 29.7328 36.3639 27.2226 36.3639C24.7124 36.3639 22.6775 34.3289 22.6775 31.8179C22.6775 29.3077 24.7124 27.2727 27.2226 27.2727C29.7328 27.2727 31.7677 29.3077 31.7677 31.8179Z" fill="#AD6143"/>
<path d="M61.3683 24.9997C61.3683 27.5107 59.3333 29.5457 56.823 29.5457C54.3119 29.5457 52.2769 27.5107 52.2769 24.9997C52.2769 22.4895 54.3119 20.4545 56.823 20.4545C59.3333 20.4545 61.3683 22.4895 61.3683 24.9997Z" fill="#FDCF6D"/>
<path d="M68.1505 27.2727C68.1505 29.7829 66.1156 31.8179 63.6054 31.8179C61.0945 31.8179 59.0596 29.7829 59.0596 27.2727C59.0596 24.7625 61.0945 22.7275 63.6054 22.7275C66.1156 22.7275 68.1505 24.7625 68.1505 27.2727Z" fill="#FDCF6D"/>
<path d="M45.4482 34.0909C45.4482 35.346 44.4312 36.3639 43.1761 36.3639C41.921 36.3639 40.9031 35.346 40.9031 34.0909C40.9031 32.8358 41.921 31.8179 43.1761 31.8179C44.4312 31.8179 45.4482 32.8358 45.4482 34.0909Z" fill="#FDCF6D"/>
<path d="M90.8986 50.0003C90.8986 52.5105 88.8636 54.5455 86.3526 54.5455C83.8423 54.5455 81.8074 52.5105 81.8074 50.0003C81.8074 47.4893 83.8423 45.4543 86.3526 45.4543C88.8636 45.4543 90.8986 47.4893 90.8986 50.0003Z" fill="#FDBC34"/>
<path d="M63.6287 59.0906C63.6287 61.6017 61.5938 63.6366 59.0829 63.6366C56.5727 63.6366 54.5378 61.6017 54.5378 59.0906C54.5378 56.5804 56.5727 54.5455 59.0829 54.5455C61.5938 54.5455 63.6287 56.5804 63.6287 59.0906Z" fill="#FDCF6D"/>
<path d="M77.2636 45.4542C77.2636 47.9653 75.2286 50.0002 72.7175 50.0002C70.2073 50.0002 68.1724 47.9653 68.1724 45.4542C68.1724 42.944 70.2073 40.9091 72.7175 40.9091C75.2286 40.9091 77.2636 42.944 77.2636 45.4542Z" fill="#FDBC34"/>
<path d="M31.8139 56.8185C31.8139 58.0736 30.7969 59.0906 29.5419 59.0906C28.2869 59.0906 27.269 58.0736 27.269 56.8185C27.269 55.5634 28.2869 54.5455 29.5419 54.5455C30.7969 54.5455 31.8139 55.5634 31.8139 56.8185V56.8185Z" fill="#FDCF6D"/>
<path d="M45.4024 50.0003C45.4024 52.5105 43.3674 54.5455 40.8572 54.5455C38.347 54.5455 36.312 52.5105 36.312 50.0003C36.312 47.4892 38.347 45.4543 40.8572 45.4543C43.3674 45.4543 45.4024 47.4892 45.4024 50.0003Z" fill="#FDCF6D"/>
<path d="M22.7257 22.7276C22.7257 25.2378 20.6907 27.2728 18.1797 27.2728C15.6695 27.2728 13.6345 25.2378 13.6345 22.7276C13.6345 20.2165 15.6695 18.1816 18.1797 18.1816C20.6907 18.1816 22.7257 20.2165 22.7257 22.7276Z" fill="#FDCF6D"/>
<path d="M31.8139 15.9094C31.8139 17.1645 30.7969 18.1816 29.5419 18.1816C28.2869 18.1816 27.269 17.1645 27.269 15.9094C27.269 14.6543 28.2869 13.6364 29.5419 13.6364C30.7969 13.6364 31.8139 14.6543 31.8139 15.9094Z" fill="#FDCF6D"/>
</g>
<defs>
<clipPath id="clip0_307_3983">
<rect width="100" height="100" fill="white"/>
</clipPath>
</defs>
</svg>
