<svg width="19" height="19" viewBox="0 0 19 19" fill="none" xmlns="http://www.w3.org/2000/svg">
<g id="phone">
<path id="Vector" d="M2.98816 1.98816C2.67559 2.30072 2.5 2.72464 2.5 3.16667V4C2.5 10.9033 8.09667 16.5 15 16.5H15.8333C16.2754 16.5 16.6993 16.3244 17.0118 16.0118C17.3244 15.6993 17.5 15.2754 17.5 14.8333V12.1008C17.5 11.9259 17.445 11.7553 17.3427 11.6134C17.2404 11.4714 17.096 11.3653 16.93 11.31L13.1858 10.0617C12.9956 9.99841 12.7888 10.0059 12.6036 10.0827C12.4184 10.1596 12.2671 10.3006 12.1775 10.48L11.2358 12.3608C9.19538 11.4389 7.5611 9.80462 6.63917 7.76417L8.52 6.8225C8.69938 6.73288 8.84042 6.58158 8.91726 6.39637C8.9941 6.21116 9.00158 6.00445 8.93833 5.81417L7.69 2.07C7.63475 1.90413 7.52874 1.75984 7.38696 1.65754C7.24519 1.55525 7.07483 1.50013 6.9 1.5H4.16667C3.72464 1.5 3.30072 1.67559 2.98816 1.98816Z" stroke="#8BAC3E" stroke-width="2" stroke-linecap="round" stroke-linejoin="round"/>
</g>
</svg>
